<?xml version="1.0" encoding="UTF-8" standalone="no"?>
<!DOCTYPE svg PUBLIC "-//W3C//DTD SVG 1.1//EN" "http://www.w3.org/Graphics/SVG/1.1/DTD/svg11.dtd">
<svg xmlns="http://www.w3.org/2000/svg" version="1.1" viewBox="0.00 0.00 288.00 288.00">
<g stroke-width="2.00" fill="none" stroke-linecap="butt">
<path stroke="#fee1b6" vector-effect="non-scaling-stroke" d="
  M 144.08 119.03
  L 122.29 119.05
  Q 118.39 119.06 118.62 122.95
  L 118.68 123.96
  A 3.05 3.04 -1.4 0 0 121.70 126.83
  L 143.95 126.95
  Q 144.44 126.96 144.44 127.45
  L 144.34 141.74
  Q 144.33 143.08 145.66 142.94
  Q 165.19 140.85 173.44 124.08
  C 174.46 122.01 174.93 119.46 175.62 117.14
  A 0.92 0.91 8.0 0 1 176.50 116.48
  L 193.02 116.53
  A 0.79 0.79 0.0 0 1 193.80 117.46
  C 188.18 148.47 157.60 169.02 127.07 157.35
  C 109.81 150.76 96.72 134.60 95.04 116.24
  C 92.07 83.72 120.18 55.69 153.00 62.04
  Q 177.90 66.86 189.22 89.22
  C 190.54 91.82 192.15 93.73 195.00 93.73
  Q 209.38 93.74 223.76 93.64
  C 231.29 93.59 230.67 87.80 228.83 82.55
  C 216.19 46.41 183.94 22.71 145.50 21.94
  C 125.72 21.55 104.38 28.71 88.96 41.19
  C 52.39 70.77 44.41 123.34 71.67 162.04
  C 100.97 203.62 160.04 212.50 199.87 180.38
  Q 230.91 155.35 233.45 114.26
  Q 233.74 109.48 232.21 107.58
  C 229.87 104.65 224.71 105.29 223.12 108.40
  Q 222.48 109.64 222.28 113.93
  C 220.17 158.57 182.55 191.72 138.25 188.40
  C 88.39 184.65 55.90 135.98 69.97 88.41
  C 83.41 42.98 133.46 20.57 176.57 40.06
  Q 204.17 52.53 216.61 81.42
  A 0.85 0.85 0.0 0 1 215.83 82.61
  L 199.42 82.61
  A 2.06 2.05 -14.7 0 1 197.63 81.57
  C 182.19 54.43 148.35 42.24 119.60 55.35
  C 86.59 70.41 73.40 110.68 92.37 142.07
  C 103.06 159.75 121.77 171.04 142.75 171.43
  C 170.10 171.93 192.98 155.93 202.00 129.99
  Q 205.24 120.65 204.82 110.76
  Q 204.59 105.46 199.26 105.46
  Q 188.26 105.46 177.25 105.32
  Q 176.02 105.31 175.48 103.48
  Q 169.20 82.09 146.68 78.81
  Q 144.42 78.49 144.44 80.77
  L 144.52 93.46
  A 0.99 0.98 -0.6 0 1 143.54 94.45
  L 121.35 94.53
  A 2.86 2.86 0.0 0 0 118.50 97.39
  L 118.50 98.50
  Q 118.50 102.26 122.25 102.24
  L 144.06 102.10
  A 0.30 0.30 0.0 0 1 144.36 102.40
  L 144.44 118.67
  Q 144.45 119.03 144.08 119.03"
/>
<path stroke="#808080" vector-effect="non-scaling-stroke" d="
  M 18.72 224.58
  A 0.54 0.54 0.0 0 1 18.17 224.03
  L 18.19 214.98
  A 0.54 0.54 0.0 0 0 17.72 214.44
  L 16.37 214.27
  A 0.54 0.54 0.0 0 0 15.76 214.81
  L 15.76 226.47
  A 0.54 0.54 0.0 0 0 16.31 227.01
  L 24.98 226.91
  A 0.54 0.54 0.0 0 0 25.50 226.28
  L 25.28 224.97
  A 0.54 0.54 0.0 0 0 24.74 224.52
  L 18.72 224.58"
/>
<path stroke="#808080" vector-effect="non-scaling-stroke" d="
  M 74.16 224.60
  A 0.45 0.45 0.0 0 1 73.72 224.15
  L 73.71 214.85
  A 0.45 0.45 0.0 0 0 73.33 214.41
  L 72.02 214.20
  A 0.45 0.45 0.0 0 0 71.50 214.64
  L 71.44 226.52
  A 0.45 0.45 0.0 0 0 71.90 226.98
  L 80.89 226.89
  A 0.45 0.45 0.0 0 0 81.32 226.33
  L 81.04 225.09
  A 0.45 0.45 0.0 0 0 80.61 224.74
  L 74.16 224.60"
/>
<path stroke="#808080" vector-effect="non-scaling-stroke" d="
  M 166.51 215.15
  A 0.82 0.82 0.0 0 0 165.69 214.33
  L 165.11 214.33
  A 0.82 0.82 0.0 0 0 164.29 215.15
  L 164.29 226.37
  A 0.82 0.82 0.0 0 0 165.11 227.19
  L 165.69 227.19
  A 0.82 0.82 0.0 0 0 166.51 226.37
  L 166.51 215.15"
/>
<path stroke="#808080" vector-effect="non-scaling-stroke" d="
  M 239.14 214.32
  A 0.54 0.54 0.0 0 0 238.65 214.61
  L 234.63 222.57
  A 0.54 0.54 0.0 0 1 233.67 222.57
  L 229.71 214.80
  A 0.54 0.54 0.0 0 0 229.25 214.51
  L 227.54 214.44
  A 0.54 0.54 0.0 0 0 227.05 215.24
  L 233.61 227.46
  A 0.54 0.54 0.0 0 0 234.56 227.45
  L 241.06 215.14
  A 0.54 0.54 0.0 0 0 240.60 214.35
  L 239.14 214.32"
/>
<path stroke="#808080" vector-effect="non-scaling-stroke" d="
  M 245.5301 214.9519
  A 0.55 0.55 0.0 0 0 244.9810 214.4010
  L 243.8610 214.3990
  A 0.55 0.55 0.0 0 0 243.3101 214.9481
  L 243.2899 226.4881
  A 0.55 0.55 0.0 0 0 243.8390 227.0390
  L 244.9590 227.0410
  A 0.55 0.55 0.0 0 0 245.5099 226.4919
  L 245.5301 214.9519"
/>
<path stroke="#808080" vector-effect="non-scaling-stroke" d="
  M 10.57 224.37
  C 5.80 225.33 2.99 224.20 4.02 218.89
  A 2.34 2.33 -85.1 0 1 6.26 217.00
  L 11.84 216.88
  Q 13.04 216.85 12.93 215.66
  L 12.89 215.29
  A 0.84 0.83 87.4 0 0 12.06 214.53
  C 8.07 214.51 2.38 213.36 1.46 218.99
  C -0.02 228.05 7.29 226.89 13.01 227.01
  A 0.27 0.26 1.1 0 0 13.29 226.75
  L 13.28 219.76
  A 0.27 0.27 0.0 0 0 13.01 219.49
  L 6.73 219.50
  Q 5.95 219.50 6.00 220.27
  L 6.04 220.92
  A 0.88 0.87 -1.7 0 0 6.92 221.74
  L 10.23 221.71
  Q 10.87 221.70 11.00 222.33
  Q 11.15 223.09 11.05 223.85
  Q 11.00 224.28 10.57 224.37"
/>
<path stroke="#808080" vector-effect="non-scaling-stroke" d="
  M 40.2780 219.8567
  A 5.23 5.23 0.0 0 0 35.1493 214.5273
  L 32.4299 214.4750
  A 5.23 5.23 0.0 0 0 27.1004 219.6037
  L 27.0620 221.6033
  A 5.23 5.23 0.0 0 0 32.1907 226.9327
  L 34.9101 226.9850
  A 5.23 5.23 0.0 0 0 40.2396 221.8563
  L 40.2780 219.8567"
/>
<path stroke="#808080" vector-effect="non-scaling-stroke" d="
  M 42.61 214.73
  L 42.63 226.77
  A 0.22 0.22 0.0 0 0 42.85 226.99
  L 50.88 226.98
  A 3.27 2.87 -0.1 0 0 54.15 224.10
  L 54.13 217.36
  A 3.27 2.87 -0.1 0 0 50.86 214.50
  L 42.83 214.51
  A 0.22 0.22 0.0 0 0 42.61 214.73"
/>
<path stroke="#808080" vector-effect="non-scaling-stroke" d="
  M 61.97 218.77
  A 0.43 0.43 0.0 0 1 62.72 218.76
  L 64.04 221.08
  A 0.43 0.43 0.0 0 1 63.68 221.73
  L 60.78 221.83
  A 0.43 0.43 0.0 0 0 60.37 222.25
  L 60.34 223.40
  A 0.43 0.43 0.0 0 0 60.77 223.84
  L 64.93 223.87
  A 0.43 0.43 0.0 0 1 65.29 224.07
  L 66.94 226.77
  A 0.43 0.43 0.0 0 0 67.29 226.98
  L 69.03 227.06
  A 0.43 0.43 0.0 0 0 69.43 226.43
  L 62.79 213.84
  A 0.43 0.43 0.0 0 0 62.03 213.84
  L 55.32 226.32
  A 0.43 0.43 0.0 0 0 55.63 226.94
  L 57.27 227.20
  A 0.43 0.43 0.0 0 0 57.72 226.97
  L 61.97 218.77"
/>
<path stroke="#808080" vector-effect="non-scaling-stroke" d="
  M 91.01 224.67
  A 0.44 0.44 0.0 0 1 90.57 224.22
  L 90.62 217.36
  A 0.44 0.44 0.0 0 1 91.04 216.93
  L 98.05 216.70
  A 0.44 0.44 0.0 0 0 98.47 216.30
  L 98.58 215.06
  A 0.44 0.44 0.0 0 0 98.15 214.59
  L 88.89 214.49
  A 0.44 0.44 0.0 0 0 88.45 214.93
  L 88.46 226.55
  A 0.44 0.44 0.0 0 0 88.91 226.99
  L 98.19 226.82
  A 0.44 0.44 0.0 0 0 98.62 226.35
  L 98.53 225.17
  A 0.44 0.44 0.0 0 0 98.10 224.76
  L 91.01 224.67"
/>
<path stroke="#808080" vector-effect="non-scaling-stroke" d="
  M 103.48 224.61
  A 0.45 0.45 0.0 0 1 103.03 224.15
  L 103.10 214.93
  A 0.45 0.45 0.0 0 0 102.66 214.48
  L 101.41 214.45
  A 0.45 0.45 0.0 0 0 100.95 214.90
  L 100.92 226.48
  A 0.45 0.45 0.0 0 0 101.37 226.93
  L 110.02 226.97
  A 0.45 0.45 0.0 0 0 110.47 226.49
  L 110.39 225.11
  A 0.45 0.45 0.0 0 0 109.95 224.68
  L 103.48 224.61"
/>
<path stroke="#808080" vector-effect="non-scaling-stroke" d="
  M 114.53 217.48
  A 0.52 0.52 0.0 0 1 115.04 216.96
  L 121.91 216.89
  A 0.52 0.52 0.0 0 0 122.42 216.45
  L 122.62 215.17
  A 0.52 0.52 0.0 0 0 122.11 214.57
  L 112.78 214.50
  A 0.52 0.52 0.0 0 0 112.25 215.03
  L 112.32 226.47
  A 0.52 0.52 0.0 0 0 112.84 226.99
  L 122.02 226.94
  A 0.52 0.52 0.0 0 0 122.53 226.37
  L 122.40 225.12
  A 0.52 0.52 0.0 0 0 121.89 224.65
  L 114.99 224.57
  A 0.52 0.52 0.0 0 1 114.47 224.04
  L 114.53 217.48"
/>
<path stroke="#808080" vector-effect="non-scaling-stroke" d="
  M 130.51 224.72
  C 126.90 224.87 125.23 220.65 127.23 218.21
  C 128.74 216.38 132.35 216.88 134.65 216.81
  A 1.14 1.13 -87.1 0 0 135.75 215.81
  L 135.79 215.46
  A 0.75 0.74 -84.1 0 0 135.11 214.62
  Q 131.95 214.39 128.84 214.68
  C 122.15 215.31 123.21 226.50 128.75 226.93
  Q 130.14 227.03 134.87 226.96
  Q 135.83 226.95 135.78 225.99
  L 135.76 225.60
  Q 135.70 224.56 134.65 224.58
  Q 132.75 224.63 130.51 224.72"
/>
<path stroke="#808080" vector-effect="non-scaling-stroke" d="
  M 143.51 217.33
  A 0.47 0.47 0.0 0 1 143.99 216.86
  L 147.11 216.95
  A 0.47 0.47 0.0 0 0 147.59 216.55
  L 147.83 215.07
  A 0.47 0.47 0.0 0 0 147.37 214.52
  L 137.27 214.54
  A 0.47 0.47 0.0 0 0 136.83 215.17
  L 137.35 216.62
  A 0.47 0.47 0.0 0 0 137.82 216.93
  L 140.77 216.78
  A 0.47 0.47 0.0 0 1 141.26 217.26
  L 141.24 226.50
  A 0.47 0.47 0.0 0 0 141.63 226.96
  L 142.95 227.19
  A 0.47 0.47 0.0 0 0 143.50 226.73
  L 143.51 217.33"
/>
<path stroke="#808080" vector-effect="non-scaling-stroke" d="
  M 152.21 216.93
  L 157.60 216.92
  A 1.69 1.69 0.0 0 1 159.22 219.11
  L 159.02 219.76
  A 2.14 2.14 0.0 0 1 156.99 221.27
  L 152.68 221.30
  A 0.60 0.59 -13.8 0 0 152.15 222.17
  L 152.34 222.53
  Q 152.72 223.25 153.53 223.28
  L 156.20 223.41
  A 1.05 1.04 73.1 0 1 157.01 223.85
  L 158.61 226.05
  A 2.37 2.34 72.7 0 0 160.43 227.02
  L 161.70 227.07
  Q 162.81 227.11 162.08 226.27
  L 159.85 223.70
  Q 159.49 223.29 159.83 222.86
  C 161.44 220.80 162.33 214.72 158.29 214.61
  Q 154.05 214.49 149.86 214.47
  A 0.47 0.46 -89.4 0 0 149.39 214.94
  L 149.45 226.04
  A 1.05 1.04 -85.0 0 0 150.29 227.06
  L 150.64 227.13
  Q 151.58 227.32 151.58 226.36
  L 151.59 217.54
  Q 151.60 216.94 152.21 216.93"
/>
<path stroke="#808080" vector-effect="non-scaling-stroke" d="
  M 171.29 219.89
  A 2.88 2.87 89.1 0 1 174.11 216.97
  L 179.48 216.87
  Q 180.49 216.85 180.47 215.85
  L 180.47 215.50
  Q 180.46 214.53 179.49 214.53
  C 176.27 214.53 171.07 213.56 169.52 217.34
  C 168.52 219.77 168.64 223.61 170.78 225.60
  C 172.86 227.53 176.92 227.11 179.59 226.93
  Q 180.53 226.87 180.46 225.93
  L 180.43 225.46
  A 0.93 0.92 -1.3 0 0 179.51 224.59
  L 174.23 224.54
  Q 171.36 224.52 171.32 221.65
  L 171.29 219.89"
/>
<path stroke="#808080" vector-effect="non-scaling-stroke" d="
  M 197.61 223.15
  Q 197.69 224.48 196.35 224.49
  L 188.69 224.59
  A 0.94 0.93 -0.3 0 0 187.76 225.52
  L 187.76 226.02
  A 1.00 0.99 89.4 0 0 188.77 227.02
  L 196.56 226.87
  Q 199.43 226.82 199.61 223.96
  L 199.70 222.61
  Q 199.90 219.57 196.85 219.54
  L 191.50 219.48
  A 1.44 1.44 0.0 0 1 190.10 218.23
  L 190.04 217.83
  A 0.78 0.78 0.0 0 1 190.80 216.95
  L 198.30 216.84
  Q 199.36 216.83 199.50 215.78
  L 199.54 215.53
  A 0.85 0.85 0.0 0 0 198.71 214.57
  L 190.60 214.52
  A 2.71 2.70 1.0 0 0 187.87 217.15
  L 187.84 218.09
  Q 187.75 221.69 191.34 221.71
  L 196.62 221.72
  A 0.97 0.97 0.0 0 1 197.58 222.63
  L 197.61 223.15"
/>
<path stroke="#808080" vector-effect="non-scaling-stroke" d="
  M 204.25 217.19
  A 0.43 0.43 0.0 0 1 204.69 216.76
  L 211.68 216.89
  A 0.43 0.43 0.0 0 0 212.12 216.52
  L 212.29 215.15
  A 0.43 0.43 0.0 0 0 211.87 214.66
  L 202.63 214.51
  A 0.43 0.43 0.0 0 0 202.19 214.94
  L 202.24 226.34
  A 0.43 0.43 0.0 0 0 202.67 226.77
  L 211.86 226.81
  A 0.43 0.43 0.0 0 0 212.29 226.29
  L 212.05 225.10
  A 0.43 0.43 0.0 0 0 211.63 224.75
  L 204.65 224.77
  A 0.43 0.43 0.0 0 1 204.22 224.34
  L 204.25 217.19"
/>
<path stroke="#808080" vector-effect="non-scaling-stroke" d="
  M 217.29 216.89
  L 222.32 216.94
  A 1.62 1.62 0.0 0 1 223.92 218.66
  L 223.88 219.50
  A 1.89 1.88 -88.2 0 1 222.00 221.27
  L 218.18 221.25
  A 0.75 0.74 86.9 0 0 217.44 222.08
  L 217.50 222.55
  A 0.95 0.94 82.0 0 0 218.58 223.37
  Q 219.79 223.18 221.00 223.39
  A 1.43 1.40 -12.8 0 1 221.88 223.93
  L 223.80 226.52
  A 1.04 1.00 -15.3 0 0 224.53 226.92
  L 226.72 227.11
  A 0.41 0.41 0.0 0 0 227.06 226.42
  L 225.14 224.30
  A 1.50 1.49 -48.8 0 1 225.02 222.44
  Q 227.53 218.82 224.90 215.31
  A 1.79 1.78 72.1 0 0 223.52 214.60
  L 214.79 214.47
  Q 214.28 214.46 214.29 214.96
  L 214.35 226.23
  A 0.92 0.92 0.0 0 0 215.33 227.14
  L 215.63 227.12
  Q 216.71 227.06 216.71 225.97
  L 216.71 217.46
  Q 216.71 216.88 217.29 216.89"
/>
<path stroke="#808080" vector-effect="non-scaling-stroke" d="
  M 251.25 218.00
  C 252.57 216.55 256.74 216.74 258.53 216.85
  A 0.96 0.96 0.0 0 0 259.55 215.98
  L 259.60 215.52
  A 0.86 0.85 5.2 0 0 258.81 214.58
  C 252.09 214.07 246.62 214.86 248.37 222.73
  C 249.56 228.06 254.68 227.02 258.68 226.92
  A 0.85 0.85 0.0 0 0 259.51 226.02
  L 259.49 225.68
  A 1.14 1.13 -1.6 0 0 258.34 224.60
  C 256.28 224.61 252.83 225.05 251.34 223.52
  C 249.99 222.12 249.86 219.54 251.25 218.00"
/>
<path stroke="#808080" vector-effect="non-scaling-stroke" d="
  M 264.33 224.74
  A 0.43 0.43 0.0 0 1 263.90 224.31
  L 263.81 217.23
  A 0.43 0.43 0.0 0 1 264.25 216.79
  L 271.37 216.88
  A 0.43 0.43 0.0 0 0 271.81 216.50
  L 271.96 215.20
  A 0.43 0.43 0.0 0 0 271.55 214.72
  L 262.05 214.50
  A 0.43 0.43 0.0 0 0 261.61 214.93
  L 261.69 226.53
  A 0.43 0.43 0.0 0 0 262.13 226.96
  L 271.65 226.71
  A 0.43 0.43 0.0 0 0 272.06 226.19
  L 271.80 225.06
  A 0.43 0.43 0.0 0 0 271.38 224.73
  L 264.33 224.74"
/>
<path stroke="#808080" vector-effect="non-scaling-stroke" d="
  M 283.68 222.92
  L 283.58 223.38
  Q 283.28 224.79 281.84 224.78
  L 274.69 224.75
  Q 273.70 224.74 273.57 225.72
  L 273.52 226.07
  A 0.72 0.72 0.0 0 0 274.25 226.88
  L 282.78 226.67
  A 2.69 2.69 0.0 0 0 285.40 224.02
  L 285.42 222.42
  Q 285.46 219.88 282.92 219.81
  Q 280.24 219.73 277.50 219.50
  Q 276.14 219.38 275.88 218.25
  A 1.22 1.22 0.0 0 1 277.06 216.76
  L 284.04 216.71
  Q 284.99 216.71 285.11 215.77
  L 285.14 215.46
  A 0.66 0.66 0.0 0 0 284.49 214.72
  L 276.22 214.75
  A 2.38 2.38 0.0 0 0 273.85 217.28
  L 273.94 218.74
  A 2.88 2.88 0.0 0 0 276.73 221.44
  L 282.66 221.62
  A 1.08 1.08 0.0 0 1 283.68 222.92"
/>
<path stroke="#808080" vector-effect="non-scaling-stroke" d="
  M 98.0490 220.3820
  A 0.84 0.84 0.0 0 0 97.2046 219.5464
  L 92.0047 219.5736
  A 0.84 0.84 0.0 0 0 91.1691 220.4180
  L 91.1710 220.7780
  A 0.84 0.84 0.0 0 0 92.0154 221.6136
  L 97.2153 221.5864
  A 0.84 0.84 0.0 0 0 98.0509 220.7420
  L 98.0490 220.3820"
/>
<path stroke="#808080" vector-effect="non-scaling-stroke" d="
  M 121.8905 220.6045
  A 1.04 1.04 0.0 0 0 120.8670 219.5483
  L 116.0076 219.4720
  A 1.04 1.04 0.0 0 0 114.9514 220.4955
  L 114.9495 220.6155
  A 1.04 1.04 0.0 0 0 115.9730 221.6717
  L 120.8324 221.7480
  A 1.04 1.04 0.0 0 0 121.8886 220.7245
  L 121.8905 220.6045"
/>
<path stroke="#808080" vector-effect="non-scaling-stroke" d="
  M 211.7699 220.4942
  A 0.93 0.93 0.0 0 0 210.8383 219.5658
  L 206.0383 219.5742
  A 0.93 0.93 0.0 0 0 205.1099 220.5058
  L 205.1101 220.6058
  A 0.93 0.93 0.0 0 0 206.0417 221.5342
  L 210.8417 221.5258
  A 0.93 0.93 0.0 0 0 211.7701 220.5942
  L 211.7699 220.4942"
/>
<path stroke="#808080" vector-effect="non-scaling-stroke" d="
  M 271.2904 220.5650
  A 0.93 0.93 0.0 0 0 270.3751 219.6205
  L 265.2357 219.5398
  A 0.93 0.93 0.0 0 0 264.2912 220.4550
  L 264.2896 220.5550
  A 0.93 0.93 0.0 0 0 265.2049 221.4995
  L 270.3443 221.5802
  A 0.93 0.93 0.0 0 0 271.2888 220.6650
  L 271.2904 220.5650"
/>
<path stroke="#808080" vector-effect="non-scaling-stroke" d="
  M 37.9890 220.1924
  A 3.30 3.30 0.0 0 0 34.6833 216.8982
  L 32.5633 216.9019
  A 3.30 3.30 0.0 0 0 29.2690 220.2076
  L 29.2710 221.3076
  A 3.30 3.30 0.0 0 0 32.5767 224.6018
  L 34.6967 224.5981
  A 3.30 3.30 0.0 0 0 37.9910 221.2924
  L 37.9890 220.1924"
/>
<path stroke="#808080" vector-effect="non-scaling-stroke" d="
  M 45.49 220.26
  A 0.76 0.75 89.6 0 1 46.24 219.49
  L 50.79 219.50
  A 1.12 1.11 90.0 0 0 51.90 218.38
  L 51.90 217.95
  A 0.96 0.96 0.0 0 0 50.95 216.99
  L 46.06 216.93
  Q 44.77 216.91 44.77 218.19
  L 44.77 223.22
  Q 44.77 224.62 46.17 224.65
  Q 47.82 224.69 50.60 224.41
  Q 51.46 224.32 51.79 223.91
  Q 52.31 223.29 51.83 222.31
  A 1.00 1.00 0.0 0 0 50.95 221.75
  L 46.48 221.72
  A 1.00 1.00 0.0 0 1 45.49 220.73
  L 45.49 220.26"
/>
</g>
<path fill="#ffffff" d="
  M 0.00 0.00
  L 288.00 0.00
  L 288.00 288.00
  L 0.00 288.00
  L 0.00 0.00
  Z
  M 144.08 119.03
  L 122.29 119.05
  Q 118.39 119.06 118.62 122.95
  L 118.68 123.96
  A 3.05 3.04 -1.4 0 0 121.70 126.83
  L 143.95 126.95
  Q 144.44 126.96 144.44 127.45
  L 144.34 141.74
  Q 144.33 143.08 145.66 142.94
  Q 165.19 140.85 173.44 124.08
  C 174.46 122.01 174.93 119.46 175.62 117.14
  A 0.92 0.91 8.0 0 1 176.50 116.48
  L 193.02 116.53
  A 0.79 0.79 0.0 0 1 193.80 117.46
  C 188.18 148.47 157.60 169.02 127.07 157.35
  C 109.81 150.76 96.72 134.60 95.04 116.24
  C 92.07 83.72 120.18 55.69 153.00 62.04
  Q 177.90 66.86 189.22 89.22
  C 190.54 91.82 192.15 93.73 195.00 93.73
  Q 209.38 93.74 223.76 93.64
  C 231.29 93.59 230.67 87.80 228.83 82.55
  C 216.19 46.41 183.94 22.71 145.50 21.94
  C 125.72 21.55 104.38 28.71 88.96 41.19
  C 52.39 70.77 44.41 123.34 71.67 162.04
  C 100.97 203.62 160.04 212.50 199.87 180.38
  Q 230.91 155.35 233.45 114.26
  Q 233.74 109.48 232.21 107.58
  C 229.87 104.65 224.71 105.29 223.12 108.40
  Q 222.48 109.64 222.28 113.93
  C 220.17 158.57 182.55 191.72 138.25 188.40
  C 88.39 184.65 55.90 135.98 69.97 88.41
  C 83.41 42.98 133.46 20.57 176.57 40.06
  Q 204.17 52.53 216.61 81.42
  A 0.85 0.85 0.0 0 1 215.83 82.61
  L 199.42 82.61
  A 2.06 2.05 -14.7 0 1 197.63 81.57
  C 182.19 54.43 148.35 42.24 119.60 55.35
  C 86.59 70.41 73.40 110.68 92.37 142.07
  C 103.06 159.75 121.77 171.04 142.75 171.43
  C 170.10 171.93 192.98 155.93 202.00 129.99
  Q 205.24 120.65 204.82 110.76
  Q 204.59 105.46 199.26 105.46
  Q 188.26 105.46 177.25 105.32
  Q 176.02 105.31 175.48 103.48
  Q 169.20 82.09 146.68 78.81
  Q 144.42 78.49 144.44 80.77
  L 144.52 93.46
  A 0.99 0.98 -0.6 0 1 143.54 94.45
  L 121.35 94.53
  A 2.86 2.86 0.0 0 0 118.50 97.39
  L 118.50 98.50
  Q 118.50 102.26 122.25 102.24
  L 144.06 102.10
  A 0.30 0.30 0.0 0 1 144.36 102.40
  L 144.44 118.67
  Q 144.45 119.03 144.08 119.03
  Z
  M 18.72 224.58
  A 0.54 0.54 0.0 0 1 18.17 224.03
  L 18.19 214.98
  A 0.54 0.54 0.0 0 0 17.72 214.44
  L 16.37 214.27
  A 0.54 0.54 0.0 0 0 15.76 214.81
  L 15.76 226.47
  A 0.54 0.54 0.0 0 0 16.31 227.01
  L 24.98 226.91
  A 0.54 0.54 0.0 0 0 25.50 226.28
  L 25.28 224.97
  A 0.54 0.54 0.0 0 0 24.74 224.52
  L 18.72 224.58
  Z
  M 74.16 224.60
  A 0.45 0.45 0.0 0 1 73.72 224.15
  L 73.71 214.85
  A 0.45 0.45 0.0 0 0 73.33 214.41
  L 72.02 214.20
  A 0.45 0.45 0.0 0 0 71.50 214.64
  L 71.44 226.52
  A 0.45 0.45 0.0 0 0 71.90 226.98
  L 80.89 226.89
  A 0.45 0.45 0.0 0 0 81.32 226.33
  L 81.04 225.09
  A 0.45 0.45 0.0 0 0 80.61 224.74
  L 74.16 224.60
  Z
  M 166.51 215.15
  A 0.82 0.82 0.0 0 0 165.69 214.33
  L 165.11 214.33
  A 0.82 0.82 0.0 0 0 164.29 215.15
  L 164.29 226.37
  A 0.82 0.82 0.0 0 0 165.11 227.19
  L 165.69 227.19
  A 0.82 0.82 0.0 0 0 166.51 226.37
  L 166.51 215.15
  Z
  M 239.14 214.32
  A 0.54 0.54 0.0 0 0 238.65 214.61
  L 234.63 222.57
  A 0.54 0.54 0.0 0 1 233.67 222.57
  L 229.71 214.80
  A 0.54 0.54 0.0 0 0 229.25 214.51
  L 227.54 214.44
  A 0.54 0.54 0.0 0 0 227.05 215.24
  L 233.61 227.46
  A 0.54 0.54 0.0 0 0 234.56 227.45
  L 241.06 215.14
  A 0.54 0.54 0.0 0 0 240.60 214.35
  L 239.14 214.32
  Z
  M 245.5301 214.9519
  A 0.55 0.55 0.0 0 0 244.9810 214.4010
  L 243.8610 214.3990
  A 0.55 0.55 0.0 0 0 243.3101 214.9481
  L 243.2899 226.4881
  A 0.55 0.55 0.0 0 0 243.8390 227.0390
  L 244.9590 227.0410
  A 0.55 0.55 0.0 0 0 245.5099 226.4919
  L 245.5301 214.9519
  Z
  M 10.57 224.37
  C 5.80 225.33 2.99 224.20 4.02 218.89
  A 2.34 2.33 -85.1 0 1 6.26 217.00
  L 11.84 216.88
  Q 13.04 216.85 12.93 215.66
  L 12.89 215.29
  A 0.84 0.83 87.4 0 0 12.06 214.53
  C 8.07 214.51 2.38 213.36 1.46 218.99
  C -0.02 228.05 7.29 226.89 13.01 227.01
  A 0.27 0.26 1.1 0 0 13.29 226.75
  L 13.28 219.76
  A 0.27 0.27 0.0 0 0 13.01 219.49
  L 6.73 219.50
  Q 5.95 219.50 6.00 220.27
  L 6.04 220.92
  A 0.88 0.87 -1.7 0 0 6.92 221.74
  L 10.23 221.71
  Q 10.87 221.70 11.00 222.33
  Q 11.15 223.09 11.05 223.85
  Q 11.00 224.28 10.57 224.37
  Z
  M 40.2780 219.8567
  A 5.23 5.23 0.0 0 0 35.1493 214.5273
  L 32.4299 214.4750
  A 5.23 5.23 0.0 0 0 27.1004 219.6037
  L 27.0620 221.6033
  A 5.23 5.23 0.0 0 0 32.1907 226.9327
  L 34.9101 226.9850
  A 5.23 5.23 0.0 0 0 40.2396 221.8563
  L 40.2780 219.8567
  Z
  M 42.61 214.73
  L 42.63 226.77
  A 0.22 0.22 0.0 0 0 42.85 226.99
  L 50.88 226.98
  A 3.27 2.87 -0.1 0 0 54.15 224.10
  L 54.13 217.36
  A 3.27 2.87 -0.1 0 0 50.86 214.50
  L 42.83 214.51
  A 0.22 0.22 0.0 0 0 42.61 214.73
  Z
  M 61.97 218.77
  A 0.43 0.43 0.0 0 1 62.72 218.76
  L 64.04 221.08
  A 0.43 0.43 0.0 0 1 63.68 221.73
  L 60.78 221.83
  A 0.43 0.43 0.0 0 0 60.37 222.25
  L 60.34 223.40
  A 0.43 0.43 0.0 0 0 60.77 223.84
  L 64.93 223.87
  A 0.43 0.43 0.0 0 1 65.29 224.07
  L 66.94 226.77
  A 0.43 0.43 0.0 0 0 67.29 226.98
  L 69.03 227.06
  A 0.43 0.43 0.0 0 0 69.43 226.43
  L 62.79 213.84
  A 0.43 0.43 0.0 0 0 62.03 213.84
  L 55.32 226.32
  A 0.43 0.43 0.0 0 0 55.63 226.94
  L 57.27 227.20
  A 0.43 0.43 0.0 0 0 57.72 226.97
  L 61.97 218.77
  Z
  M 91.01 224.67
  A 0.44 0.44 0.0 0 1 90.57 224.22
  L 90.62 217.36
  A 0.44 0.44 0.0 0 1 91.04 216.93
  L 98.05 216.70
  A 0.44 0.44 0.0 0 0 98.47 216.30
  L 98.58 215.06
  A 0.44 0.44 0.0 0 0 98.15 214.59
  L 88.89 214.49
  A 0.44 0.44 0.0 0 0 88.45 214.93
  L 88.46 226.55
  A 0.44 0.44 0.0 0 0 88.91 226.99
  L 98.19 226.82
  A 0.44 0.44 0.0 0 0 98.62 226.35
  L 98.53 225.17
  A 0.44 0.44 0.0 0 0 98.10 224.76
  L 91.01 224.67
  Z
  M 103.48 224.61
  A 0.45 0.45 0.0 0 1 103.03 224.15
  L 103.10 214.93
  A 0.45 0.45 0.0 0 0 102.66 214.48
  L 101.41 214.45
  A 0.45 0.45 0.0 0 0 100.95 214.90
  L 100.92 226.48
  A 0.45 0.45 0.0 0 0 101.37 226.93
  L 110.02 226.97
  A 0.45 0.45 0.0 0 0 110.47 226.49
  L 110.39 225.11
  A 0.45 0.45 0.0 0 0 109.95 224.68
  L 103.48 224.61
  Z
  M 114.53 217.48
  A 0.52 0.52 0.0 0 1 115.04 216.96
  L 121.91 216.89
  A 0.52 0.52 0.0 0 0 122.42 216.45
  L 122.62 215.17
  A 0.52 0.52 0.0 0 0 122.11 214.57
  L 112.78 214.50
  A 0.52 0.52 0.0 0 0 112.25 215.03
  L 112.32 226.47
  A 0.52 0.52 0.0 0 0 112.84 226.99
  L 122.02 226.94
  A 0.52 0.52 0.0 0 0 122.53 226.37
  L 122.40 225.12
  A 0.52 0.52 0.0 0 0 121.89 224.65
  L 114.99 224.57
  A 0.52 0.52 0.0 0 1 114.47 224.04
  L 114.53 217.48
  Z
  M 130.51 224.72
  C 126.90 224.87 125.23 220.65 127.23 218.21
  C 128.74 216.38 132.35 216.88 134.65 216.81
  A 1.14 1.13 -87.1 0 0 135.75 215.81
  L 135.79 215.46
  A 0.75 0.74 -84.1 0 0 135.11 214.62
  Q 131.95 214.39 128.84 214.68
  C 122.15 215.31 123.21 226.50 128.75 226.93
  Q 130.14 227.03 134.87 226.96
  Q 135.83 226.95 135.78 225.99
  L 135.76 225.60
  Q 135.70 224.56 134.65 224.58
  Q 132.75 224.63 130.51 224.72
  Z
  M 143.51 217.33
  A 0.47 0.47 0.0 0 1 143.99 216.86
  L 147.11 216.95
  A 0.47 0.47 0.0 0 0 147.59 216.55
  L 147.83 215.07
  A 0.47 0.47 0.0 0 0 147.37 214.52
  L 137.27 214.54
  A 0.47 0.47 0.0 0 0 136.83 215.17
  L 137.35 216.62
  A 0.47 0.47 0.0 0 0 137.82 216.93
  L 140.77 216.78
  A 0.47 0.47 0.0 0 1 141.26 217.26
  L 141.24 226.50
  A 0.47 0.47 0.0 0 0 141.63 226.96
  L 142.95 227.19
  A 0.47 0.47 0.0 0 0 143.50 226.73
  L 143.51 217.33
  Z
  M 152.21 216.93
  L 157.60 216.92
  A 1.69 1.69 0.0 0 1 159.22 219.11
  L 159.02 219.76
  A 2.14 2.14 0.0 0 1 156.99 221.27
  L 152.68 221.30
  A 0.60 0.59 -13.8 0 0 152.15 222.17
  L 152.34 222.53
  Q 152.72 223.25 153.53 223.28
  L 156.20 223.41
  A 1.05 1.04 73.1 0 1 157.01 223.85
  L 158.61 226.05
  A 2.37 2.34 72.7 0 0 160.43 227.02
  L 161.70 227.07
  Q 162.81 227.11 162.08 226.27
  L 159.85 223.70
  Q 159.49 223.29 159.83 222.86
  C 161.44 220.80 162.33 214.72 158.29 214.61
  Q 154.05 214.49 149.86 214.47
  A 0.47 0.46 -89.4 0 0 149.39 214.94
  L 149.45 226.04
  A 1.05 1.04 -85.0 0 0 150.29 227.06
  L 150.64 227.13
  Q 151.58 227.32 151.58 226.36
  L 151.59 217.54
  Q 151.60 216.94 152.21 216.93
  Z
  M 171.29 219.89
  A 2.88 2.87 89.1 0 1 174.11 216.97
  L 179.48 216.87
  Q 180.49 216.85 180.47 215.85
  L 180.47 215.50
  Q 180.46 214.53 179.49 214.53
  C 176.27 214.53 171.07 213.56 169.52 217.34
  C 168.52 219.77 168.64 223.61 170.78 225.60
  C 172.86 227.53 176.92 227.11 179.59 226.93
  Q 180.53 226.87 180.46 225.93
  L 180.43 225.46
  A 0.93 0.92 -1.3 0 0 179.51 224.59
  L 174.23 224.54
  Q 171.36 224.52 171.32 221.65
  L 171.29 219.89
  Z
  M 197.61 223.15
  Q 197.69 224.48 196.35 224.49
  L 188.69 224.59
  A 0.94 0.93 -0.3 0 0 187.76 225.52
  L 187.76 226.02
  A 1.00 0.99 89.4 0 0 188.77 227.02
  L 196.56 226.87
  Q 199.43 226.82 199.61 223.96
  L 199.70 222.61
  Q 199.90 219.57 196.85 219.54
  L 191.50 219.48
  A 1.44 1.44 0.0 0 1 190.10 218.23
  L 190.04 217.83
  A 0.78 0.78 0.0 0 1 190.80 216.95
  L 198.30 216.84
  Q 199.36 216.83 199.50 215.78
  L 199.54 215.53
  A 0.85 0.85 0.0 0 0 198.71 214.57
  L 190.60 214.52
  A 2.71 2.70 1.0 0 0 187.87 217.15
  L 187.84 218.09
  Q 187.75 221.69 191.34 221.71
  L 196.62 221.72
  A 0.97 0.97 0.0 0 1 197.58 222.63
  L 197.61 223.15
  Z
  M 204.25 217.19
  A 0.43 0.43 0.0 0 1 204.69 216.76
  L 211.68 216.89
  A 0.43 0.43 0.0 0 0 212.12 216.52
  L 212.29 215.15
  A 0.43 0.43 0.0 0 0 211.87 214.66
  L 202.63 214.51
  A 0.43 0.43 0.0 0 0 202.19 214.94
  L 202.24 226.34
  A 0.43 0.43 0.0 0 0 202.67 226.77
  L 211.86 226.81
  A 0.43 0.43 0.0 0 0 212.29 226.29
  L 212.05 225.10
  A 0.43 0.43 0.0 0 0 211.63 224.75
  L 204.65 224.77
  A 0.43 0.43 0.0 0 1 204.22 224.34
  L 204.25 217.19
  Z
  M 217.29 216.89
  L 222.32 216.94
  A 1.62 1.62 0.0 0 1 223.92 218.66
  L 223.88 219.50
  A 1.89 1.88 -88.2 0 1 222.00 221.27
  L 218.18 221.25
  A 0.75 0.74 86.9 0 0 217.44 222.08
  L 217.50 222.55
  A 0.95 0.94 82.0 0 0 218.58 223.37
  Q 219.79 223.18 221.00 223.39
  A 1.43 1.40 -12.8 0 1 221.88 223.93
  L 223.80 226.52
  A 1.04 1.00 -15.3 0 0 224.53 226.92
  L 226.72 227.11
  A 0.41 0.41 0.0 0 0 227.06 226.42
  L 225.14 224.30
  A 1.50 1.49 -48.8 0 1 225.02 222.44
  Q 227.53 218.82 224.90 215.31
  A 1.79 1.78 72.1 0 0 223.52 214.60
  L 214.79 214.47
  Q 214.28 214.46 214.29 214.96
  L 214.35 226.23
  A 0.92 0.92 0.0 0 0 215.33 227.14
  L 215.63 227.12
  Q 216.71 227.06 216.71 225.97
  L 216.71 217.46
  Q 216.71 216.88 217.29 216.89
  Z
  M 251.25 218.00
  C 252.57 216.55 256.74 216.74 258.53 216.85
  A 0.96 0.96 0.0 0 0 259.55 215.98
  L 259.60 215.52
  A 0.86 0.85 5.2 0 0 258.81 214.58
  C 252.09 214.07 246.62 214.86 248.37 222.73
  C 249.56 228.06 254.68 227.02 258.68 226.92
  A 0.85 0.85 0.0 0 0 259.51 226.02
  L 259.49 225.68
  A 1.14 1.13 -1.6 0 0 258.34 224.60
  C 256.28 224.61 252.83 225.05 251.34 223.52
  C 249.99 222.12 249.86 219.54 251.25 218.00
  Z
  M 264.33 224.74
  A 0.43 0.43 0.0 0 1 263.90 224.31
  L 263.81 217.23
  A 0.43 0.43 0.0 0 1 264.25 216.79
  L 271.37 216.88
  A 0.43 0.43 0.0 0 0 271.81 216.50
  L 271.96 215.20
  A 0.43 0.43 0.0 0 0 271.55 214.72
  L 262.05 214.50
  A 0.43 0.43 0.0 0 0 261.61 214.93
  L 261.69 226.53
  A 0.43 0.43 0.0 0 0 262.13 226.96
  L 271.65 226.71
  A 0.43 0.43 0.0 0 0 272.06 226.19
  L 271.80 225.06
  A 0.43 0.43 0.0 0 0 271.38 224.73
  L 264.33 224.74
  Z
  M 283.68 222.92
  L 283.58 223.38
  Q 283.28 224.79 281.84 224.78
  L 274.69 224.75
  Q 273.70 224.74 273.57 225.72
  L 273.52 226.07
  A 0.72 0.72 0.0 0 0 274.25 226.88
  L 282.78 226.67
  A 2.69 2.69 0.0 0 0 285.40 224.02
  L 285.42 222.42
  Q 285.46 219.88 282.92 219.81
  Q 280.24 219.73 277.50 219.50
  Q 276.14 219.38 275.88 218.25
  A 1.22 1.22 0.0 0 1 277.06 216.76
  L 284.04 216.71
  Q 284.99 216.71 285.11 215.77
  L 285.14 215.46
  A 0.66 0.66 0.0 0 0 284.49 214.72
  L 276.22 214.75
  A 2.38 2.38 0.0 0 0 273.85 217.28
  L 273.94 218.74
  A 2.88 2.88 0.0 0 0 276.73 221.44
  L 282.66 221.62
  A 1.08 1.08 0.0 0 1 283.68 222.92
  Z
  M 98.0490 220.3820
  A 0.84 0.84 0.0 0 0 97.2046 219.5464
  L 92.0047 219.5736
  A 0.84 0.84 0.0 0 0 91.1691 220.4180
  L 91.1710 220.7780
  A 0.84 0.84 0.0 0 0 92.0154 221.6136
  L 97.2153 221.5864
  A 0.84 0.84 0.0 0 0 98.0509 220.7420
  L 98.0490 220.3820
  Z
  M 121.8905 220.6045
  A 1.04 1.04 0.0 0 0 120.8670 219.5483
  L 116.0076 219.4720
  A 1.04 1.04 0.0 0 0 114.9514 220.4955
  L 114.9495 220.6155
  A 1.04 1.04 0.0 0 0 115.9730 221.6717
  L 120.8324 221.7480
  A 1.04 1.04 0.0 0 0 121.8886 220.7245
  L 121.8905 220.6045
  Z
  M 211.7699 220.4942
  A 0.93 0.93 0.0 0 0 210.8383 219.5658
  L 206.0383 219.5742
  A 0.93 0.93 0.0 0 0 205.1099 220.5058
  L 205.1101 220.6058
  A 0.93 0.93 0.0 0 0 206.0417 221.5342
  L 210.8417 221.5258
  A 0.93 0.93 0.0 0 0 211.7701 220.5942
  L 211.7699 220.4942
  Z
  M 271.2904 220.5650
  A 0.93 0.93 0.0 0 0 270.3751 219.6205
  L 265.2357 219.5398
  A 0.93 0.93 0.0 0 0 264.2912 220.4550
  L 264.2896 220.5550
  A 0.93 0.93 0.0 0 0 265.2049 221.4995
  L 270.3443 221.5802
  A 0.93 0.93 0.0 0 0 271.2888 220.6650
  L 271.2904 220.5650
  Z"
/>
<path fill="#fcc26c" d="
  M 144.44 118.67
  L 144.36 102.40
  A 0.30 0.30 0.0 0 0 144.06 102.10
  L 122.25 102.24
  Q 118.50 102.26 118.50 98.50
  L 118.50 97.39
  A 2.86 2.86 0.0 0 1 121.35 94.53
  L 143.54 94.45
  A 0.99 0.98 -0.6 0 0 144.52 93.46
  L 144.44 80.77
  Q 144.42 78.49 146.68 78.81
  Q 169.20 82.09 175.48 103.48
  Q 176.02 105.31 177.25 105.32
  Q 188.26 105.46 199.26 105.46
  Q 204.59 105.46 204.82 110.76
  Q 205.24 120.65 202.00 129.99
  C 192.98 155.93 170.10 171.93 142.75 171.43
  C 121.77 171.04 103.06 159.75 92.37 142.07
  C 73.40 110.68 86.59 70.41 119.60 55.35
  C 148.35 42.24 182.19 54.43 197.63 81.57
  A 2.06 2.05 -14.7 0 0 199.42 82.61
  L 215.83 82.61
  A 0.85 0.85 0.0 0 0 216.61 81.42
  Q 204.17 52.53 176.57 40.06
  C 133.46 20.57 83.41 42.98 69.97 88.41
  C 55.90 135.98 88.39 184.65 138.25 188.40
  C 182.55 191.72 220.17 158.57 222.28 113.93
  Q 222.48 109.64 223.12 108.40
  C 224.71 105.29 229.87 104.65 232.21 107.58
  Q 233.74 109.48 233.45 114.26
  Q 230.91 155.35 199.87 180.38
  C 160.04 212.50 100.97 203.62 71.67 162.04
  C 44.41 123.34 52.39 70.77 88.96 41.19
  C 104.38 28.71 125.72 21.55 145.50 21.94
  C 183.94 22.71 216.19 46.41 228.83 82.55
  C 230.67 87.80 231.29 93.59 223.76 93.64
  Q 209.38 93.74 195.00 93.73
  C 192.15 93.73 190.54 91.82 189.22 89.22
  Q 177.90 66.86 153.00 62.04
  C 120.18 55.69 92.07 83.72 95.04 116.24
  C 96.72 134.60 109.81 150.76 127.07 157.35
  C 157.60 169.02 188.18 148.47 193.80 117.46
  A 0.79 0.79 0.0 0 0 193.02 116.53
  L 176.50 116.48
  A 0.92 0.91 8.0 0 0 175.62 117.14
  C 174.93 119.46 174.46 122.01 173.44 124.08
  Q 165.19 140.85 145.66 142.94
  Q 144.33 143.08 144.34 141.74
  L 144.44 127.45
  Q 144.44 126.96 143.95 126.95
  L 121.70 126.83
  A 3.05 3.04 -1.4 0 1 118.68 123.96
  L 118.62 122.95
  Q 118.39 119.06 122.29 119.05
  L 144.08 119.03
  Q 144.45 119.03 144.44 118.67
  Z"
/>
<path fill="#000000" d="
  M 18.72 224.58
  L 24.74 224.52
  A 0.54 0.54 0.0 0 1 25.28 224.97
  L 25.50 226.28
  A 0.54 0.54 0.0 0 1 24.98 226.91
  L 16.31 227.01
  A 0.54 0.54 0.0 0 1 15.76 226.47
  L 15.76 214.81
  A 0.54 0.54 0.0 0 1 16.37 214.27
  L 17.72 214.44
  A 0.54 0.54 0.0 0 1 18.19 214.98
  L 18.17 224.03
  A 0.54 0.54 0.0 0 0 18.72 224.58
  Z"
/>
<path fill="#000000" d="
  M 74.16 224.60
  L 80.61 224.74
  A 0.45 0.45 0.0 0 1 81.04 225.09
  L 81.32 226.33
  A 0.45 0.45 0.0 0 1 80.89 226.89
  L 71.90 226.98
  A 0.45 0.45 0.0 0 1 71.44 226.52
  L 71.50 214.64
  A 0.45 0.45 0.0 0 1 72.02 214.20
  L 73.33 214.41
  A 0.45 0.45 0.0 0 1 73.71 214.85
  L 73.72 224.15
  A 0.45 0.45 0.0 0 0 74.16 224.60
  Z"
/>
<rect fill="#000000" x="164.29" y="214.33" width="2.22" height="12.86" rx="0.82"/>
<path fill="#000000" d="
  M 239.14 214.32
  L 240.60 214.35
  A 0.54 0.54 0.0 0 1 241.06 215.14
  L 234.56 227.45
  A 0.54 0.54 0.0 0 1 233.61 227.46
  L 227.05 215.24
  A 0.54 0.54 0.0 0 1 227.54 214.44
  L 229.25 214.51
  A 0.54 0.54 0.0 0 1 229.71 214.80
  L 233.67 222.57
  A 0.54 0.54 0.0 0 0 234.63 222.57
  L 238.65 214.61
  A 0.54 0.54 0.0 0 1 239.14 214.32
  Z"
/>
<rect fill="#000000" x="-1.11" y="-6.32" transform="translate(244.41,220.72) rotate(0.1)" width="2.22" height="12.64" rx="0.55"/>
<path fill="#000000" d="
  M 11.05 223.85
  Q 11.15 223.09 11.00 222.33
  Q 10.87 221.70 10.23 221.71
  L 6.92 221.74
  A 0.88 0.87 -1.7 0 1 6.04 220.92
  L 6.00 220.27
  Q 5.95 219.50 6.73 219.50
  L 13.01 219.49
  A 0.27 0.27 0.0 0 1 13.28 219.76
  L 13.29 226.75
  A 0.27 0.26 1.1 0 1 13.01 227.01
  C 7.29 226.89 -0.02 228.05 1.46 218.99
  C 2.38 213.36 8.07 214.51 12.06 214.53
  A 0.84 0.83 87.4 0 1 12.89 215.29
  L 12.93 215.66
  Q 13.04 216.85 11.84 216.88
  L 6.26 217.00
  A 2.34 2.33 -85.1 0 0 4.02 218.89
  C 2.99 224.20 5.80 225.33 10.57 224.37
  Q 11.00 224.28 11.05 223.85
  Z"
/>
<path fill="#000000" d="
  M 40.2396 221.8563
  A 5.23 5.23 0.0 0 1 34.9101 226.9850
  L 32.1907 226.9327
  A 5.23 5.23 0.0 0 1 27.0620 221.6033
  L 27.1004 219.6037
  A 5.23 5.23 0.0 0 1 32.4299 214.4750
  L 35.1493 214.5273
  A 5.23 5.23 0.0 0 1 40.2780 219.8567
  L 40.2396 221.8563
  Z
  M 37.9890 220.1924
  A 3.30 3.30 0.0 0 0 34.6833 216.8982
  L 32.5633 216.9019
  A 3.30 3.30 0.0 0 0 29.2690 220.2076
  L 29.2710 221.3076
  A 3.30 3.30 0.0 0 0 32.5767 224.6018
  L 34.6967 224.5981
  A 3.30 3.30 0.0 0 0 37.9910 221.2924
  L 37.9890 220.1924
  Z"
/>
<path fill="#000000" d="
  M 42.61 214.73
  A 0.22 0.22 0.0 0 1 42.83 214.51
  L 50.86 214.50
  A 3.27 2.87 -0.1 0 1 54.13 217.36
  L 54.15 224.10
  A 3.27 2.87 -0.1 0 1 50.88 226.98
  L 42.85 226.99
  A 0.22 0.22 0.0 0 1 42.63 226.77
  L 42.61 214.73
  Z
  M 45.49 220.26
  A 0.76 0.75 89.6 0 1 46.24 219.49
  L 50.79 219.50
  A 1.12 1.11 90.0 0 0 51.90 218.38
  L 51.90 217.95
  A 0.96 0.96 0.0 0 0 50.95 216.99
  L 46.06 216.93
  Q 44.77 216.91 44.77 218.19
  L 44.77 223.22
  Q 44.77 224.62 46.17 224.65
  Q 47.82 224.69 50.60 224.41
  Q 51.46 224.32 51.79 223.91
  Q 52.31 223.29 51.83 222.31
  A 1.00 1.00 0.0 0 0 50.95 221.75
  L 46.48 221.72
  A 1.00 1.00 0.0 0 1 45.49 220.73
  L 45.49 220.26
  Z"
/>
<path fill="#000000" d="
  M 61.97 218.77
  L 57.72 226.97
  A 0.43 0.43 0.0 0 1 57.27 227.20
  L 55.63 226.94
  A 0.43 0.43 0.0 0 1 55.32 226.32
  L 62.03 213.84
  A 0.43 0.43 0.0 0 1 62.79 213.84
  L 69.43 226.43
  A 0.43 0.43 0.0 0 1 69.03 227.06
  L 67.29 226.98
  A 0.43 0.43 0.0 0 1 66.94 226.77
  L 65.29 224.07
  A 0.43 0.43 0.0 0 0 64.93 223.87
  L 60.77 223.84
  A 0.43 0.43 0.0 0 1 60.34 223.40
  L 60.37 222.25
  A 0.43 0.43 0.0 0 1 60.78 221.83
  L 63.68 221.73
  A 0.43 0.43 0.0 0 0 64.04 221.08
  L 62.72 218.76
  A 0.43 0.43 0.0 0 0 61.97 218.77
  Z"
/>
<path fill="#000000" d="
  M 91.01 224.67
  L 98.10 224.76
  A 0.44 0.44 0.0 0 1 98.53 225.17
  L 98.62 226.35
  A 0.44 0.44 0.0 0 1 98.19 226.82
  L 88.91 226.99
  A 0.44 0.44 0.0 0 1 88.46 226.55
  L 88.45 214.93
  A 0.44 0.44 0.0 0 1 88.89 214.49
  L 98.15 214.59
  A 0.44 0.44 0.0 0 1 98.58 215.06
  L 98.47 216.30
  A 0.44 0.44 0.0 0 1 98.05 216.70
  L 91.04 216.93
  A 0.44 0.44 0.0 0 0 90.62 217.36
  L 90.57 224.22
  A 0.44 0.44 0.0 0 0 91.01 224.67
  Z"
/>
<path fill="#000000" d="
  M 103.48 224.61
  L 109.95 224.68
  A 0.45 0.45 0.0 0 1 110.39 225.11
  L 110.47 226.49
  A 0.45 0.45 0.0 0 1 110.02 226.97
  L 101.37 226.93
  A 0.45 0.45 0.0 0 1 100.92 226.48
  L 100.95 214.90
  A 0.45 0.45 0.0 0 1 101.41 214.45
  L 102.66 214.48
  A 0.45 0.45 0.0 0 1 103.10 214.93
  L 103.03 224.15
  A 0.45 0.45 0.0 0 0 103.48 224.61
  Z"
/>
<path fill="#000000" d="
  M 114.53 217.48
  L 114.47 224.04
  A 0.52 0.52 0.0 0 0 114.99 224.57
  L 121.89 224.65
  A 0.52 0.52 0.0 0 1 122.40 225.12
  L 122.53 226.37
  A 0.52 0.52 0.0 0 1 122.02 226.94
  L 112.84 226.99
  A 0.52 0.52 0.0 0 1 112.32 226.47
  L 112.25 215.03
  A 0.52 0.52 0.0 0 1 112.78 214.50
  L 122.11 214.57
  A 0.52 0.52 0.0 0 1 122.62 215.17
  L 122.42 216.45
  A 0.52 0.52 0.0 0 1 121.91 216.89
  L 115.04 216.96
  A 0.52 0.52 0.0 0 0 114.53 217.48
  Z"
/>
<path fill="#000000" d="
  M 127.23 218.21
  C 125.23 220.65 126.90 224.87 130.51 224.72
  Q 132.75 224.63 134.65 224.58
  Q 135.70 224.56 135.76 225.60
  L 135.78 225.99
  Q 135.83 226.95 134.87 226.96
  Q 130.14 227.03 128.75 226.93
  C 123.21 226.50 122.15 215.31 128.84 214.68
  Q 131.95 214.39 135.11 214.62
  A 0.75 0.74 -84.1 0 1 135.79 215.46
  L 135.75 215.81
  A 1.14 1.13 -87.1 0 1 134.65 216.81
  C 132.35 216.88 128.74 216.38 127.23 218.21
  Z"
/>
<path fill="#000000" d="
  M 143.51 217.33
  L 143.50 226.73
  A 0.47 0.47 0.0 0 1 142.95 227.19
  L 141.63 226.96
  A 0.47 0.47 0.0 0 1 141.24 226.50
  L 141.26 217.26
  A 0.47 0.47 0.0 0 0 140.77 216.78
  L 137.82 216.93
  A 0.47 0.47 0.0 0 1 137.35 216.62
  L 136.83 215.17
  A 0.47 0.47 0.0 0 1 137.27 214.54
  L 147.37 214.52
  A 0.47 0.47 0.0 0 1 147.83 215.07
  L 147.59 216.55
  A 0.47 0.47 0.0 0 1 147.11 216.95
  L 143.99 216.86
  A 0.47 0.47 0.0 0 0 143.51 217.33
  Z"
/>
<path fill="#000000" d="
  M 151.59 217.54
  L 151.58 226.36
  Q 151.58 227.32 150.64 227.13
  L 150.29 227.06
  A 1.05 1.04 -85.0 0 1 149.45 226.04
  L 149.39 214.94
  A 0.47 0.46 -89.4 0 1 149.86 214.47
  Q 154.05 214.49 158.29 214.61
  C 162.33 214.72 161.44 220.80 159.83 222.86
  Q 159.49 223.29 159.85 223.70
  L 162.08 226.27
  Q 162.81 227.11 161.70 227.07
  L 160.43 227.02
  A 2.37 2.34 72.7 0 1 158.61 226.05
  L 157.01 223.85
  A 1.05 1.04 73.1 0 0 156.20 223.41
  L 153.53 223.28
  Q 152.72 223.25 152.34 222.53
  L 152.15 222.17
  A 0.60 0.59 -13.8 0 1 152.68 221.30
  L 156.99 221.27
  A 2.14 2.14 0.0 0 0 159.02 219.76
  L 159.22 219.11
  A 1.69 1.69 0.0 0 0 157.60 216.92
  L 152.21 216.93
  Q 151.60 216.94 151.59 217.54
  Z"
/>
<path fill="#000000" d="
  M 171.29 219.89
  L 171.32 221.65
  Q 171.36 224.52 174.23 224.54
  L 179.51 224.59
  A 0.93 0.92 -1.3 0 1 180.43 225.46
  L 180.46 225.93
  Q 180.53 226.87 179.59 226.93
  C 176.92 227.11 172.86 227.53 170.78 225.60
  C 168.64 223.61 168.52 219.77 169.52 217.34
  C 171.07 213.56 176.27 214.53 179.49 214.53
  Q 180.46 214.53 180.47 215.50
  L 180.47 215.85
  Q 180.49 216.85 179.48 216.87
  L 174.11 216.97
  A 2.88 2.87 89.1 0 0 171.29 219.89
  Z"
/>
<path fill="#000000" d="
  M 197.61 223.15
  L 197.58 222.63
  A 0.97 0.97 0.0 0 0 196.62 221.72
  L 191.34 221.71
  Q 187.75 221.69 187.84 218.09
  L 187.87 217.15
  A 2.71 2.70 1.0 0 1 190.60 214.52
  L 198.71 214.57
  A 0.85 0.85 0.0 0 1 199.54 215.53
  L 199.50 215.78
  Q 199.36 216.83 198.30 216.84
  L 190.80 216.95
  A 0.78 0.78 0.0 0 0 190.04 217.83
  L 190.10 218.23
  A 1.44 1.44 0.0 0 0 191.50 219.48
  L 196.85 219.54
  Q 199.90 219.57 199.70 222.61
  L 199.61 223.96
  Q 199.43 226.82 196.56 226.87
  L 188.77 227.02
  A 1.00 0.99 89.4 0 1 187.76 226.02
  L 187.76 225.52
  A 0.94 0.93 -0.3 0 1 188.69 224.59
  L 196.35 224.49
  Q 197.69 224.48 197.61 223.15
  Z"
/>
<path fill="#000000" d="
  M 204.25 217.19
  L 204.22 224.34
  A 0.43 0.43 0.0 0 0 204.65 224.77
  L 211.63 224.75
  A 0.43 0.43 0.0 0 1 212.05 225.10
  L 212.29 226.29
  A 0.43 0.43 0.0 0 1 211.86 226.81
  L 202.67 226.77
  A 0.43 0.43 0.0 0 1 202.24 226.34
  L 202.19 214.94
  A 0.43 0.43 0.0 0 1 202.63 214.51
  L 211.87 214.66
  A 0.43 0.43 0.0 0 1 212.29 215.15
  L 212.12 216.52
  A 0.43 0.43 0.0 0 1 211.68 216.89
  L 204.69 216.76
  A 0.43 0.43 0.0 0 0 204.25 217.19
  Z"
/>
<path fill="#000000" d="
  M 216.71 217.46
  L 216.71 225.97
  Q 216.71 227.06 215.63 227.12
  L 215.33 227.14
  A 0.92 0.92 0.0 0 1 214.35 226.23
  L 214.29 214.96
  Q 214.28 214.46 214.79 214.47
  L 223.52 214.60
  A 1.79 1.78 72.1 0 1 224.90 215.31
  Q 227.53 218.82 225.02 222.44
  A 1.50 1.49 -48.8 0 0 225.14 224.30
  L 227.06 226.42
  A 0.41 0.41 0.0 0 1 226.72 227.11
  L 224.53 226.92
  A 1.04 1.00 -15.3 0 1 223.80 226.52
  L 221.88 223.93
  A 1.43 1.40 -12.8 0 0 221.00 223.39
  Q 219.79 223.18 218.58 223.37
  A 0.95 0.94 82.0 0 1 217.50 222.55
  L 217.44 222.08
  A 0.75 0.74 86.9 0 1 218.18 221.25
  L 222.00 221.27
  A 1.89 1.88 -88.2 0 0 223.88 219.50
  L 223.92 218.66
  A 1.62 1.62 0.0 0 0 222.32 216.94
  L 217.29 216.89
  Q 216.71 216.88 216.71 217.46
  Z"
/>
<path fill="#000000" d="
  M 251.25 218.00
  C 249.86 219.54 249.99 222.12 251.34 223.52
  C 252.83 225.05 256.28 224.61 258.34 224.60
  A 1.14 1.13 -1.6 0 1 259.49 225.68
  L 259.51 226.02
  A 0.85 0.85 0.0 0 1 258.68 226.92
  C 254.68 227.02 249.56 228.06 248.37 222.73
  C 246.62 214.86 252.09 214.07 258.81 214.58
  A 0.86 0.85 5.2 0 1 259.60 215.52
  L 259.55 215.98
  A 0.96 0.96 0.0 0 1 258.53 216.85
  C 256.74 216.74 252.57 216.55 251.25 218.00
  Z"
/>
<path fill="#000000" d="
  M 264.33 224.74
  L 271.38 224.73
  A 0.43 0.43 0.0 0 1 271.80 225.06
  L 272.06 226.19
  A 0.43 0.43 0.0 0 1 271.65 226.71
  L 262.13 226.96
  A 0.43 0.43 0.0 0 1 261.69 226.53
  L 261.61 214.93
  A 0.43 0.43 0.0 0 1 262.05 214.50
  L 271.55 214.72
  A 0.43 0.43 0.0 0 1 271.96 215.20
  L 271.81 216.50
  A 0.43 0.43 0.0 0 1 271.37 216.88
  L 264.25 216.79
  A 0.43 0.43 0.0 0 0 263.81 217.23
  L 263.90 224.31
  A 0.43 0.43 0.0 0 0 264.33 224.74
  Z"
/>
<path fill="#000000" d="
  M 283.68 222.92
  A 1.08 1.08 0.0 0 0 282.66 221.62
  L 276.73 221.44
  A 2.88 2.88 0.0 0 1 273.94 218.74
  L 273.85 217.28
  A 2.38 2.38 0.0 0 1 276.22 214.75
  L 284.49 214.72
  A 0.66 0.66 0.0 0 1 285.14 215.46
  L 285.11 215.77
  Q 284.99 216.71 284.04 216.71
  L 277.06 216.76
  A 1.22 1.22 0.0 0 0 275.88 218.25
  Q 276.14 219.38 277.50 219.50
  Q 280.24 219.73 282.92 219.81
  Q 285.46 219.88 285.42 222.42
  L 285.40 224.02
  A 2.69 2.69 0.0 0 1 282.78 226.67
  L 274.25 226.88
  A 0.72 0.72 0.0 0 1 273.52 226.07
  L 273.57 225.72
  Q 273.70 224.74 274.69 224.75
  L 281.84 224.78
  Q 283.28 224.79 283.58 223.38
  L 283.68 222.92
  Z"
/>
<rect fill="#ffffff" x="-4.36" y="-3.85" transform="translate(33.63,220.75) rotate(-0.1)" width="8.72" height="7.70" rx="3.30"/>
<path fill="#ffffff" d="
  M 45.49 220.26
  L 45.49 220.73
  A 1.00 1.00 0.0 0 0 46.48 221.72
  L 50.95 221.75
  A 1.00 1.00 0.0 0 1 51.83 222.31
  Q 52.31 223.29 51.79 223.91
  Q 51.46 224.32 50.60 224.41
  Q 47.82 224.69 46.17 224.65
  Q 44.77 224.62 44.77 223.22
  L 44.77 218.19
  Q 44.77 216.91 46.06 216.93
  L 50.95 216.99
  A 0.96 0.96 0.0 0 1 51.90 217.95
  L 51.90 218.38
  A 1.12 1.11 -90.0 0 1 50.79 219.50
  L 46.24 219.49
  A 0.76 0.75 89.6 0 0 45.49 220.26
  Z"
/>
<rect fill="#000000" x="-3.44" y="-1.02" transform="translate(94.61,220.58) rotate(-0.3)" width="6.88" height="2.04" rx="0.84"/>
<rect fill="#000000" x="-3.47" y="-1.10" transform="translate(118.42,220.61) rotate(0.9)" width="6.94" height="2.20" rx="1.04"/>
<rect fill="#000000" x="-3.33" y="-0.98" transform="translate(208.44,220.55) rotate(-0.1)" width="6.66" height="1.96" rx="0.93"/>
<rect fill="#000000" x="-3.50" y="-0.98" transform="translate(267.79,220.56) rotate(0.9)" width="7.00" height="1.96" rx="0.93"/>
</svg>